<svg xmlns="http://www.w3.org/2000/svg" version="1.1" xmlns:xlink="http://www.w3.org/1999/xlink" xmlns:svgjs="http://svgjs.dev/svgjs" viewBox="0 0 6.405687526254925 2.535521220147364"><g transform="matrix(1,0,0,1,2.6399187311022834,0.7413918002876912)"><rect width="6.405687526254925" height="6.405687526254925" x="-2.6399187311022834" y="-2.676474953341472" fill="#ffffff"></rect><g><path d=" M 1.0744245000000001 1.183815 Q 1.0594395 1.183815 1.0444545 1.1823165000000002 Q 1.0294695 1.1808180000000001 1.012986 1.1778210000000002 Q 0.911088 1.1583405000000002 0.8286705 1.1103885000000002 Q 0.746253 1.0624365 0.68106825 0.9987502500000001 Q 0.6158835 0.9350640000000001 0.56268675 0.8646345000000001 Q 0.50949 0.7942050000000002 0.4660335 0.7290202500000001 Q 0.42257700000000004 0.6638355000000001 0.3851145 0.6143850000000002 Q 0.3821175 0.6068925000000001 0.37837125 0.6098895000000001 Q 0.374625 0.6128865000000001 0.374625 0.6128865000000001 Q 0.341658 0.6758235000000001 0.31393575 0.7305187500000001 Q 0.2862135 0.7852140000000001 0.272727 0.8181810000000002 Q 0.260739 0.8511480000000001 0.260739 0.8646345000000001 Q 0.260739 0.8856135000000002 0.2772225 0.8856135000000002 Q 0.2982015 0.8856135000000002 0.3221775 0.8571420000000001 Q 0.338661 0.8376615000000001 0.35289675000000004 0.8204287500000002 Q 0.36713250000000003 0.8031960000000001 0.377622 0.8061930000000002 Q 0.3791205 0.8076915000000001 0.3791205 0.8106885000000001 Q 0.3791205 0.8181810000000002 0.368631 0.8309182500000001 Q 0.3581415 0.8436555000000001 0.356643 0.8451540000000001 Q 0.3461535 0.8601390000000001 0.32892075 0.8856135000000002 Q 0.311688 0.9110880000000001 0.29295675 0.9313177500000002 Q 0.2742255 0.9515475000000001 0.2532465 0.9515475000000001 Q 0.2502495 0.9515475000000001 0.23601375 0.9485505000000001 Q 0.221778 0.9455535000000002 0.20904075 0.9410580000000002 Q 0.19630350000000002 0.9365625000000001 0.194805 0.9305685000000001 Q 0.191808 0.9020970000000001 0.20904075 0.8503987500000001 Q 0.22627350000000002 0.7987005000000001 0.2562435 0.7357635000000001 Q 0.2862135 0.6728265000000001 0.317682 0.6128865000000001 Q 0.293706 0.6068925000000001 0.2832165 0.6023970000000001 Q 0.2682315 0.5919075 0.2682315 0.5739255000000001 Q 0.2682315 0.5589405000000001 0.2802195 0.5469525000000002 Q 0.2922075 0.5349645000000001 0.3161835 0.5349645000000001 Q 0.323676 0.5349645000000001 0.3341655 0.5379615000000001 Q 0.344655 0.5409585000000001 0.350649 0.5484510000000001 Q 0.3761235 0.5034960000000002 0.39635325 0.4660335000000001 Q 0.41658300000000004 0.4285710000000001 0.425574 0.40759200000000007 Q 0.43456500000000003 0.3911085000000001 0.437562 0.3798697500000001 Q 0.44055900000000003 0.36863100000000015 0.44055900000000003 0.3626370000000001 Q 0.44055900000000003 0.3536460000000001 0.437562 0.34765200000000007 Q 0.44055900000000003 0.32967000000000013 0.45929025 0.2997000000000001 Q 0.4780215 0.26973000000000014 0.506493 0.23976000000000008 Q 0.5349645000000001 0.20979000000000014 0.5679315 0.1895602500000001 Q 0.6008985 0.16933050000000005 0.62937 0.16933050000000005 Q 0.6383610000000001 0.16933050000000005 0.65709225 0.17457525000000007 Q 0.6758235 0.1798200000000001 0.69305625 0.19030950000000013 Q 0.7102890000000001 0.20079900000000006 0.7147845 0.22027950000000007 Q 0.716283 0.22477500000000006 0.716283 0.22927050000000004 Q 0.716283 0.23376600000000014 0.713286 0.23376600000000014 Q 0.7102890000000001 0.23376600000000014 0.70504425 0.23151825000000015 Q 0.6997995 0.22927050000000004 0.6968025 0.22927050000000004 Q 0.6548445 0.22927050000000004 0.60314625 0.27947025000000014 Q 0.551448 0.32967000000000013 0.49825125000000003 0.40759200000000007 Q 0.4450545 0.4855140000000001 0.39860100000000004 0.5694300000000001 Q 0.4060935 0.5709285000000002 0.41583375 0.5731762500000002 Q 0.425574 0.5754240000000002 0.4390605 0.5754240000000002 Q 0.4450545 0.5754240000000002 0.45029925000000004 0.5754240000000002 Q 0.455544 0.5754240000000002 0.461538 0.5739255000000001 Q 0.557442 0.563436 0.65709225 0.5364630000000001 Q 0.7567425 0.5094900000000001 0.8436555 0.4660335000000001 Q 0.9305685 0.4225770000000001 0.9875115 0.36413550000000006 Q 1.039959 0.30869100000000005 1.039959 0.2502495000000001 Q 1.039959 0.20679300000000012 1.006992 0.16933050000000005 Q 0.974025 0.1318680000000001 0.9035955 0.11238750000000008 Q 0.8616375000000001 0.10039950000000009 0.80844075 0.09440550000000014 Q 0.755244 0.08841150000000009 0.6938055000000001 0.08841150000000009 Q 0.5979015 0.08841150000000009 0.49675275 0.10489500000000007 Q 0.395604 0.12137850000000006 0.30719250000000003 0.15509475000000006 Q 0.218781 0.18881100000000006 0.158841 0.23976000000000008 Q 0.098901 0.2907090000000001 0.086913 0.36113850000000014 Q 0.0824175 0.39710250000000014 0.1003995 0.4180815000000001 Q 0.1183815 0.43906050000000013 0.14460525000000002 0.4502992500000001 Q 0.170829 0.4615380000000001 0.185814 0.4705290000000001 Q 0.19630350000000002 0.4795200000000001 0.19630350000000002 0.4855140000000001 Q 0.19630350000000002 0.4960035000000001 0.176823 0.4930065000000001 Q 0.155844 0.4885110000000001 0.12512475 0.4720275000000001 Q 0.0944055 0.4555440000000001 0.07117875 0.4263232500000001 Q 0.047952 0.39710250000000014 0.047952 0.3581415000000001 Q 0.047952 0.35214750000000006 0.04870125 0.3461535000000001 Q 0.0494505 0.34015950000000006 0.050949 0.3341655000000001 Q 0.050949 0.33266700000000005 0.05019975 0.3244252500000001 Q 0.0494505 0.31618350000000006 0.0494505 0.3101895000000001 Q 0.0584415 0.2637360000000001 0.09515475 0.22252725000000007 Q 0.131868 0.18131850000000005 0.17907075 0.14910075000000012 Q 0.22627350000000002 0.11688300000000007 0.266733 0.09740250000000006 Q 0.33716250000000003 0.06293700000000013 0.4360635 0.042707250000000085 Q 0.5349645000000001 0.02247750000000004 0.6428565 0.02247750000000004 Q 0.7087905 0.02247750000000004 0.77397525 0.03146850000000012 Q 0.83916 0.04045950000000009 0.9005985000000001 0.059940000000000104 Q 0.986013 0.08841150000000009 1.03321575 0.14760225000000005 Q 1.0804185 0.20679300000000012 1.075923 0.2712285000000001 Q 1.0714275 0.33266700000000005 1.03321575 0.3821175000000001 Q 0.995004 0.4315680000000001 0.93581325 0.4682812500000001 Q 0.8766225000000001 0.5049945000000001 0.80544375 0.5312182500000001 Q 0.7342650000000001 0.5574420000000001 0.6623370000000001 0.5739255000000001 Q 0.6038955 0.5859135000000001 0.53946 0.5934060000000001 Q 0.4750245 0.6008985000000001 0.4180815 0.6038955000000001 Q 0.48251700000000003 0.6833160000000001 0.54620325 0.7634857500000001 Q 0.6098895 0.8436555000000001 0.68256675 0.9140850000000001 Q 0.755244 0.9845145000000002 0.842157 1.0347142500000002 Q 0.9290700000000001 1.0849140000000002 1.0384605 1.105893 Q 1.060938 1.1103885000000002 1.084914 1.1103885000000002 Q 1.123875 1.1103885000000002 1.16208675 1.0984005000000001 Q 1.2002985 1.0864125000000002 1.225773 1.0609380000000002 Q 1.2512475 1.0354635 1.2512475 0.9935055000000002 Q 1.2512475 0.9860130000000001 1.2504982500000001 0.9785205000000001 Q 1.249749 0.9710280000000001 1.2482505000000002 0.9635355000000001 Q 1.2482505000000002 0.9605385000000001 1.24750125 0.9590400000000001 Q 1.246752 0.9575415000000002 1.246752 0.9560430000000001 Q 1.246752 0.9425565000000001 1.2572415000000001 0.9425565000000001 Q 1.2722265000000001 0.9425565000000001 1.2767220000000001 0.9650340000000002 Q 1.2812175000000001 0.9875115000000001 1.2812175000000001 1.006992 Q 1.2812175000000001 1.0294695 1.27747125 1.04895 Q 1.273725 1.0684305 1.267731 1.0849140000000002 Q 1.2542445 1.126872 1.19954925 1.1553435 Q 1.144854 1.183815 1.0744245000000001 1.183815 M 1.5088769661621093 1.192806 Q 1.4549309661621095 1.192806 1.4279579661621093 1.150848 Q 1.4009849661621092 1.1088900000000002 1.3919939661621092 1.0474515000000002 Q 1.3889969661621093 1.024974 1.3867492161621093 1.0002487500000001 Q 1.3845014661621093 0.9755235000000001 1.3845014661621093 0.9485505000000001 Q 1.3845014661621093 0.8961030000000001 1.3904954661621094 0.8354137500000001 Q 1.3964894661621092 0.7747245000000001 1.4069789661621095 0.7102890000000002 Q 1.3500359661621093 0.7657335000000001 1.2833527161621094 0.8189302500000001 Q 1.2166694661621094 0.8721270000000001 1.1454907161621093 0.9065925000000001 Q 1.0743119661621092 0.9410580000000002 1.0023839661621095 0.9410580000000002 Q 0.9649214661621093 0.9410580000000002 0.9357007161621094 0.9185805000000001 Q 0.9064799661621094 0.8961030000000001 0.8989874661621093 0.8436555000000001 Q 0.8974889661621094 0.8331660000000001 0.8967397161621093 0.8234257500000002 Q 0.8959904661621093 0.8136855000000001 0.8959904661621093 0.8031960000000001 Q 0.8959904661621093 0.7372620000000001 0.9184679661621094 0.6653340000000001 Q 0.9409454661621093 0.5934060000000001 0.9746617161621094 0.5207287500000002 Q 1.0083779661621093 0.4480515000000001 1.0435927161621092 0.3776220000000001 Q 1.0788074661621094 0.3071925000000001 1.1027834661621094 0.2472525000000001 Q 1.1057804661621093 0.2427570000000001 1.1057804661621093 0.23901075000000005 Q 1.1057804661621093 0.2352645000000001 1.1057804661621093 0.23376600000000014 Q 1.1057804661621093 0.22777200000000009 1.1012849661621094 0.22777200000000009 Q 1.0922939661621094 0.22777200000000009 1.0683179661621094 0.2472525000000001 Q 1.0173689661621093 0.28921050000000015 0.9634229661621093 0.3191805000000001 Q 0.9094769661621094 0.34915050000000014 0.8630234661621093 0.35214750000000006 L 0.8615249661621094 0.35214750000000006 Q 0.8480384661621093 0.35214750000000006 0.8480384661621093 0.3431565000000001 Q 0.8480384661621093 0.32967000000000013 0.8675189661621093 0.3266730000000001 Q 0.8929934661621093 0.3236760000000001 0.9297067161621093 0.30344625000000014 Q 0.9664199661621093 0.2832165000000001 1.0068794661621094 0.25324650000000015 Q 1.0473389661621093 0.2232765000000001 1.0840522161621093 0.19105875000000005 Q 1.1207654661621094 0.15884100000000012 1.1469892161621094 0.1318680000000001 Q 1.1732129661621093 0.10489500000000007 1.1807054661621095 0.08991000000000005 Q 1.1837024661621094 0.08241750000000014 1.2024337161621093 0.07642350000000009 Q 1.2211649661621093 0.07042950000000014 1.2391469661621093 0.07042950000000014 Q 1.2556304661621094 0.07042950000000014 1.2676184661621093 0.07492500000000013 Q 1.2796064661621094 0.07942050000000012 1.2766094661621095 0.08991000000000005 Q 1.2661199661621094 0.10639350000000014 1.2368992161621093 0.15509475000000006 Q 1.2076784661621094 0.2037960000000001 1.1694667161621093 0.27197775000000013 Q 1.1312549661621094 0.34015950000000006 1.0930432161621093 0.4180815000000001 Q 1.0548314661621094 0.4960035000000001 1.0256107161621093 0.5716777500000001 Q 0.9963899661621094 0.6473520000000001 0.9844019661621093 0.7087905000000001 Q 0.9814049661621094 0.7282710000000001 0.9799064661621093 0.7455037500000001 Q 0.9784079661621093 0.7627365000000002 0.9784079661621093 0.7792200000000001 Q 0.9784079661621093 0.8391600000000001 0.9993869661621093 0.8638852500000002 Q 1.0203659661621094 0.8886105000000001 1.0518344661621093 0.8886105000000001 Q 1.0907954661621093 0.8886105000000001 1.1379982161621094 0.8668822500000001 Q 1.1852009661621095 0.8451540000000001 1.2339022161621094 0.8099392500000001 Q 1.2826034661621093 0.7747245000000001 1.3290569661621094 0.7342650000000002 Q 1.3755104661621094 0.6938055000000001 1.4129729661621093 0.6563430000000001 Q 1.4279579661621093 0.5589405000000001 1.4496862161621094 0.4660335000000001 Q 1.4714144661621094 0.37312650000000014 1.4961397161621095 0.2952045000000001 Q 1.5208649661621094 0.21728250000000005 1.5448409661621092 0.16933050000000005 Q 1.5808049661621093 0.09140850000000011 1.6302554661621094 0.04570425000000011 Q 1.6797059661621092 1.1102230246251565e-16 1.7486369661621093 0.0029970000000001384 Q 1.7995859661621094 0.007492500000000124 1.8190664661621092 0.03446550000000004 Q 1.8385469661621094 0.06143850000000006 1.8385469661621094 0.09740250000000006 Q 1.8385469661621094 0.12437550000000008 1.8295559661621095 0.15434550000000014 Q 1.8100754661621092 0.22027950000000007 1.7688667161621092 0.28696275000000004 Q 1.7276579661621092 0.3536460000000001 1.6767089661621095 0.4180815000000001 Q 1.6257599661621094 0.4825170000000001 1.5748109661621092 0.5424570000000002 Q 1.5238619661621093 0.6023970000000001 1.4834024661621092 0.6548445 Q 1.4759099661621093 0.6953040000000001 1.4691667161621094 0.7470022500000001 Q 1.4624234661621094 0.7987005000000001 1.4586772161621093 0.8481510000000001 Q 1.4549309661621095 0.8976015000000002 1.4549309661621095 0.9335655000000002 Q 1.4549309661621095 1.07892 1.5043814661621093 1.1403585 Q 1.5223634661621093 1.1628360000000002 1.5463394661621095 1.1628360000000002 Q 1.5643214661621094 1.1628360000000002 1.5778079661621094 1.1478510000000002 Q 1.5838019661621092 1.135863 1.5957899661621093 1.1238750000000002 Q 1.6047809661621093 1.1148840000000002 1.6107749661621094 1.1148840000000002 Q 1.6212644661621094 1.1148840000000002 1.6167689661621094 1.1343645000000002 Q 1.6152704661621093 1.1403585 1.6100257161621094 1.14860025 Q 1.6047809661621093 1.1568420000000001 1.5972884661621094 1.1643345 Q 1.5867989661621094 1.1778210000000002 1.5598259661621094 1.1853135000000001 Q 1.5328529661621093 1.192806 1.5088769661621093 1.192806 M 1.5058799661621094 0.5604390000000001 Q 1.5598259661621094 0.5094900000000001 1.6160197161621093 0.4360635000000001 Q 1.6722134661621093 0.3626370000000001 1.7179177161621093 0.28171800000000013 Q 1.7636219661621093 0.20079900000000006 1.7831024661621093 0.12887100000000007 Q 1.7860994661621095 0.11688300000000007 1.7875979661621093 0.1056442500000001 Q 1.7890964661621094 0.09440550000000014 1.7890964661621094 0.08541450000000006 Q 1.7890964661621094 0.04195800000000005 1.7621234661621092 0.04195800000000005 Q 1.7396459661621093 0.04195800000000005 1.7066789661621093 0.07642350000000009 Q 1.6242614661621093 0.1678320000000001 1.5800557161621094 0.29145825000000014 Q 1.5358499661621092 0.4150845000000001 1.5058799661621094 0.5604390000000001 M 2.204032579541016 1.0024965000000001 Q 2.1186180795410157 1.0024965000000001 2.0616750795410157 0.9695295000000002 Q 2.0047320795410157 0.9365625000000001 1.9942425795410155 0.8676315000000001 L 1.9942425795410155 0.8586405000000001 Q 1.9822545795410156 0.8751240000000001 1.9665203295410156 0.8976015000000002 Q 1.9507860795410155 0.9200790000000001 1.9335533295410157 0.9358132500000002 Q 1.9163205795410154 0.9515475000000001 1.8983385795410155 0.9515475000000001 Q 1.8953415795410156 0.9515475000000001 1.8811058295410155 0.9485505000000001 Q 1.8668700795410156 0.9455535000000002 1.8541328295410155 0.9410580000000002 Q 1.8413955795410155 0.9365625000000001 1.8398970795410157 0.9305685000000001 Q 1.8354015795410155 0.9020970000000001 1.8541328295410155 0.8489002500000001 Q 1.8728640795410156 0.7957035000000001 1.9035833295410156 0.7312680000000001 Q 1.9343025795410156 0.6668325000000002 1.9680188295410155 0.6023970000000001 Q 2.0017350795410156 0.5379615000000001 2.030206579541016 0.4862632500000001 Q 2.0586780795410156 0.4345650000000001 2.0706660795410157 0.40759200000000007 Q 2.0796570795410156 0.3911085000000001 2.0826540795410153 0.3798697500000001 Q 2.0856510795410155 0.36863100000000015 2.0856510795410155 0.3626370000000001 Q 2.0856510795410155 0.3536460000000001 2.0826540795410153 0.34765200000000007 Q 2.0856510795410155 0.32967000000000013 2.1043823295410156 0.2997000000000001 Q 2.1231135795410156 0.26973000000000014 2.1515850795410154 0.23976000000000008 Q 2.1800565795410156 0.20979000000000014 2.213023579541016 0.1895602500000001 Q 2.2459905795410156 0.16933050000000005 2.2744620795410153 0.16933050000000005 Q 2.2834530795410157 0.16933050000000005 2.3021843295410154 0.17457525000000007 Q 2.3209155795410155 0.1798200000000001 2.3381483295410157 0.19030950000000013 Q 2.3553810795410155 0.20079900000000006 2.3598765795410155 0.22027950000000007 Q 2.3613750795410153 0.22477500000000006 2.3613750795410153 0.22927050000000004 Q 2.3613750795410153 0.23376600000000014 2.3583780795410156 0.23376600000000014 Q 2.3553810795410155 0.23376600000000014 2.350136329541016 0.23151825000000015 Q 2.3448915795410157 0.22927050000000004 2.3418945795410155 0.22927050000000004 Q 2.3074290795410155 0.22927050000000004 2.2669695795410156 0.2622375000000001 Q 2.2265100795410158 0.2952045000000001 2.1838028295410155 0.3506490000000001 Q 2.1410955795410156 0.4060935000000001 2.1006360795410157 0.4720275000000001 Q 2.0601765795410154 0.5379615000000001 2.0234633295410154 0.6046447500000001 Q 1.9867500795410156 0.6713280000000001 1.9597770795410154 0.7275217500000001 Q 1.9328040795410155 0.7837155000000001 1.9178190795410155 0.8181810000000002 Q 1.9058310795410156 0.8511480000000001 1.9058310795410156 0.8646345000000001 Q 1.9058310795410156 0.8856135000000002 1.9223145795410155 0.8856135000000002 Q 1.9432935795410156 0.8856135000000002 1.9672695795410156 0.8571420000000001 Q 1.9837530795410157 0.8376615000000001 1.9979888295410155 0.8204287500000002 Q 2.0122245795410154 0.8031960000000001 2.0227140795410157 0.8061930000000002 Q 2.0436930795410158 0.8061930000000002 2.0511855795410154 0.8174317500000001 Q 2.0586780795410156 0.8286705000000001 2.0601765795410154 0.8436555000000001 Q 2.0616750795410157 0.8586405000000001 2.0631735795410155 0.8706285000000001 Q 2.0736630795410154 0.9170820000000002 2.1118748295410157 0.9478012500000002 Q 2.1500865795410156 0.9785205000000001 2.2190175795410156 0.9785205000000001 Q 2.2924440795410157 0.9785205000000001 2.3508855795410155 0.9545445000000001 Q 2.4093270795410158 0.9305685000000001 2.4437925795410154 0.8878612500000002 Q 2.478258079541016 0.8451540000000001 2.478258079541016 0.7912080000000001 Q 2.478258079541016 0.7537455000000002 2.4602760795410155 0.7125367500000002 Q 2.4422940795410155 0.6713280000000001 2.4033330795410155 0.6293700000000001 Q 2.3703660795410153 0.5904090000000002 2.3299065795410154 0.5559435000000001 Q 2.2894470795410156 0.5214780000000001 2.2602263295410157 0.4922572500000001 Q 2.2310055795410157 0.46303650000000013 2.2310055795410157 0.4420575000000001 Q 2.2310055795410157 0.4240755000000001 2.2549815795410155 0.40983975000000006 Q 2.2789575795410153 0.39560400000000007 2.2939425795410155 0.39560400000000007 Q 2.3284080795410156 0.39560400000000007 2.3816048295410157 0.3821175000000001 Q 2.4348015795410154 0.36863100000000015 2.491744579541016 0.3454042500000001 Q 2.5486875795410153 0.3221775000000001 2.5958903295410156 0.29370600000000013 Q 2.6430930795410155 0.26523450000000015 2.665570579541016 0.23676300000000006 Q 2.679057079541016 0.22027950000000007 2.6872988295410156 0.2015482500000001 Q 2.6955405795410154 0.18281700000000012 2.6955405795410154 0.16483500000000006 Q 2.6955405795410154 0.13636350000000008 2.6708153295410155 0.11313675000000012 Q 2.6460900795410156 0.08991000000000005 2.587648579541016 0.07942050000000012 Q 2.5711650795410157 0.07492500000000013 2.5486875795410153 0.07342650000000006 Q 2.5262100795410154 0.0719280000000001 2.5007355795410158 0.0719280000000001 Q 2.4243120795410156 0.0719280000000001 2.3239125795410156 0.0861637500000001 Q 2.2235130795410156 0.10039950000000009 2.1201165795410155 0.1273725000000001 Q 2.0167200795410154 0.15434550000000014 1.9268100795410157 0.19480500000000012 Q 1.8369000795410155 0.2352645000000001 1.7792078295410156 0.2884612500000001 Q 1.7215155795410155 0.34165800000000013 1.7140230795410156 0.4060935000000001 Q 1.7110260795410155 0.4435560000000001 1.7320050795410156 0.46303650000000013 Q 1.7529840795410156 0.4825170000000001 1.7814555795410156 0.4922572500000001 Q 1.8099270795410156 0.5019975000000001 1.8264105795410155 0.5109885000000001 Q 1.8398970795410157 0.5169825000000001 1.8398970795410157 0.5229765000000002 Q 1.8398970795410157 0.5304690000000001 1.8234135795410156 0.5304690000000001 Q 1.8054315795410156 0.5304690000000001 1.7784585795410155 0.5214780000000001 Q 1.7514855795410156 0.5124870000000001 1.7252618295410156 0.4937557500000001 Q 1.6990380795410156 0.4750245000000001 1.6825545795410155 0.4480515000000001 Q 1.6660710795410156 0.4210785000000001 1.6705665795410156 0.38511450000000014 Q 1.6705665795410156 0.3821175000000001 1.6690680795410155 0.37387575000000006 Q 1.6675695795410155 0.3656340000000001 1.6675695795410155 0.36113850000000014 Q 1.6720650795410155 0.31318650000000015 1.7087783295410155 0.26973000000000014 Q 1.7454915795410155 0.22627350000000013 1.7956913295410155 0.19030950000000013 Q 1.8458910795410155 0.15434550000000014 1.8893475795410155 0.13036950000000014 Q 1.9372995795410155 0.10489500000000007 2.0047320795410157 0.08316675000000007 Q 2.0721645795410155 0.06143850000000006 2.1493373295410154 0.04495500000000008 Q 2.2265100795410158 0.028471500000000094 2.3059305795410157 0.018731250000000088 Q 2.3853510795410156 0.008991000000000082 2.4542820795410156 0.008991000000000082 Q 2.5277085795410157 0.008991000000000082 2.583153079541016 0.02097900000000008 Q 2.6580780795410153 0.037462500000000065 2.6985375795410156 0.07942050000000012 Q 2.738997079541016 0.12137850000000006 2.738997079541016 0.17232750000000008 Q 2.7374985795410156 0.22777200000000009 2.7052808295410156 0.2689807500000001 Q 2.6730630795410155 0.3101895000000001 2.6221140795410154 0.3386610000000001 Q 2.5711650795410157 0.3671325000000001 2.5119743295410157 0.38586375000000006 Q 2.4527835795410153 0.40459500000000015 2.395840579541016 0.4135860000000001 Q 2.3388975795410154 0.4225770000000001 2.2969395795410157 0.4240755000000001 Q 2.3598765795410155 0.4615380000000001 2.4220643295410156 0.5072422500000001 Q 2.4842520795410157 0.5529465000000001 2.5254608295410157 0.6068925000000001 Q 2.5666695795410157 0.6608385000000001 2.5666695795410157 0.7252740000000001 Q 2.5666695795410157 0.7612380000000001 2.5509353295410158 0.7994497500000001 Q 2.5352010795410154 0.8376615000000001 2.5007355795410158 0.8811180000000001 Q 2.4557805795410155 0.9365625000000001 2.3756108295410154 0.9695295000000002 Q 2.295441079541016 1.0024965000000001 2.204032579541016 1.0024965000000001 M 2.779329411914062 1.4655330000000002 Q 2.7253834119140623 1.4655330000000002 2.6931656619140623 1.43481375 Q 2.660947911914062 1.4040945000000002 2.660947911914062 1.3531455000000001 Q 2.660947911914062 1.3141845 2.682676161914062 1.26398475 Q 2.7044044119140622 1.2137850000000001 2.753854911914062 1.1583405000000002 Q 2.8557529119140623 1.0414575000000001 2.9808776619140622 0.9665325000000001 Q 3.106002411914062 0.8916075000000001 3.251356911914062 0.8451540000000001 Q 3.260347911914062 0.8196795000000001 3.276831411914062 0.7612380000000001 Q 3.293314911914062 0.7027965 3.314293911914062 0.6248745000000001 Q 3.3352729119140623 0.5469525000000002 3.357750411914062 0.4660335000000001 Q 3.2993089119140624 0.5559435000000001 3.231876411914062 0.6406087500000002 Q 3.164443911914062 0.7252740000000001 3.0932651619140623 0.7934557500000001 Q 3.0220864119140622 0.8616375000000002 2.952406161914062 0.9013477500000001 Q 2.8827259119140622 0.9410580000000002 2.819788911914062 0.9410580000000002 Q 2.7823264119140623 0.9410580000000002 2.753105661914062 0.9185805000000001 Q 2.723884911914062 0.8961030000000001 2.716392411914062 0.8436555000000001 Q 2.714893911914062 0.8331660000000001 2.714144661914062 0.8234257500000002 Q 2.713395411914062 0.8136855000000001 2.713395411914062 0.8031960000000001 Q 2.713395411914062 0.7372620000000001 2.735872911914062 0.6653340000000001 Q 2.758350411914062 0.5934060000000001 2.792066661914062 0.5207287500000002 Q 2.8257829119140623 0.4480515000000001 2.860997661914062 0.3776220000000001 Q 2.896212411914062 0.3071925000000001 2.920188411914062 0.2472525000000001 Q 2.923185411914062 0.2427570000000001 2.923185411914062 0.23901075000000005 Q 2.923185411914062 0.2352645000000001 2.923185411914062 0.23376600000000014 Q 2.923185411914062 0.22777200000000009 2.918689911914062 0.22777200000000009 Q 2.909698911914062 0.22777200000000009 2.885722911914062 0.2472525000000001 Q 2.8347739119140622 0.28921050000000015 2.780827911914062 0.3191805000000001 Q 2.726881911914062 0.34915050000000014 2.680428411914062 0.35214750000000006 L 2.678929911914062 0.35214750000000006 Q 2.665443411914062 0.35214750000000006 2.665443411914062 0.3431565000000001 Q 2.665443411914062 0.32967000000000013 2.684923911914062 0.3266730000000001 Q 2.710398411914062 0.3236760000000001 2.747111661914062 0.30344625000000014 Q 2.783824911914062 0.2832165000000001 2.824284411914062 0.25324650000000015 Q 2.8647439119140623 0.2232765000000001 2.9014571619140623 0.19105875000000005 Q 2.9381704119140624 0.15884100000000012 2.964394161914062 0.1318680000000001 Q 2.990617911914062 0.10489500000000007 2.998110411914062 0.08991000000000005 Q 3.001107411914062 0.08241750000000014 3.0198386619140622 0.07642350000000009 Q 3.0385699119140623 0.07042950000000014 3.0565519119140623 0.07042950000000014 Q 3.073035411914062 0.07042950000000014 3.085023411914062 0.07492500000000013 Q 3.097011411914062 0.07942050000000012 3.094014411914062 0.08991000000000005 Q 3.083524911914062 0.10639350000000014 3.0543041619140623 0.15509475000000006 Q 3.025083411914062 0.2037960000000001 2.986871661914062 0.27272700000000005 Q 2.948659911914062 0.34165800000000013 2.9104481619140623 0.4188307500000001 Q 2.872236411914062 0.4960035000000001 2.843015661914062 0.5716777500000001 Q 2.813794911914062 0.6473520000000001 2.801806911914062 0.7087905000000001 Q 2.798809911914062 0.7282710000000001 2.797311411914062 0.7455037500000001 Q 2.7958129119140622 0.7627365000000002 2.7958129119140622 0.7792200000000001 Q 2.7958129119140622 0.8391600000000001 2.8167919119140623 0.8638852500000002 Q 2.837770911914062 0.8886105000000001 2.8692394119140623 0.8886105000000001 Q 2.920188411914062 0.8886105000000001 2.980128411914062 0.8474017500000002 Q 3.040068411914062 0.8061930000000002 3.103754661914062 0.7365127500000002 Q 3.167440911914062 0.6668325000000002 3.227380911914062 0.5806687500000001 Q 3.2873209119140623 0.4945050000000001 3.340517661914062 0.4030965000000001 Q 3.393714411914062 0.3116880000000001 3.432675411914062 0.22927050000000004 Q 3.4446634119140622 0.2037960000000001 3.452905161914062 0.18206775000000008 Q 3.461146911914062 0.16033950000000008 3.471636411914062 0.14235750000000014 Q 3.477630411914062 0.13036950000000014 3.4821259119140624 0.12212775000000009 Q 3.4866214119140624 0.11388600000000004 3.492615411914062 0.11088900000000013 Q 3.510597411914062 0.08091900000000007 3.543564411914062 0.06968025000000011 Q 3.576531411914062 0.058441500000000146 3.6094984119140623 0.058441500000000146 Q 3.637969911914062 0.058441500000000146 3.658199661914062 0.0621877500000001 Q 3.6784294119140624 0.06593400000000005 3.6874204119140623 0.06743250000000012 Q 3.702405411914062 0.06893100000000008 3.702405411914062 0.08091900000000007 Q 3.702405411914062 0.08691300000000013 3.6964114119140623 0.09215775000000004 Q 3.690417411914062 0.09740250000000006 3.679927911914062 0.09740250000000006 Q 3.621486411914062 0.09140850000000011 3.584773161914062 0.13486500000000012 Q 3.548059911914062 0.17832150000000013 3.515092911914062 0.2637360000000001 Q 3.503104911914062 0.29220750000000006 3.484373661914062 0.35139825000000013 Q 3.465642411914062 0.4105890000000001 3.443164911914062 0.4817677500000001 Q 3.420687411914062 0.5529465000000001 3.398959161914062 0.6233760000000002 Q 3.377230911914062 0.6938055000000001 3.359998161914062 0.7477515000000001 Q 3.342765411914062 0.8016975000000002 3.3352729119140623 0.8241750000000001 Q 3.410197911914062 0.8031960000000001 3.450657411914062 0.8031960000000001 Q 3.467140911914062 0.8031960000000001 3.473134911914062 0.8076915000000001 Q 3.477630411914062 0.8121870000000001 3.477630411914062 0.8181810000000002 Q 3.477630411914062 0.8241750000000001 3.4746334119140623 0.8279212500000002 Q 3.471636411914062 0.8316675000000001 3.465642411914062 0.8286705000000001 Q 3.459648411914062 0.8256735000000002 3.447660411914062 0.8256735000000002 Q 3.428179911914062 0.8256735000000002 3.398959161914062 0.8324167500000001 Q 3.369738411914062 0.8391600000000001 3.3450131619140624 0.8496495000000002 Q 3.320287911914062 0.8601390000000001 3.314293911914062 0.8751240000000001 Q 3.228879411914062 1.0924065 3.130727661914062 1.2220267500000002 Q 3.032575911914062 1.3516470000000003 2.940418161914062 1.4085900000000002 Q 2.848260411914062 1.4655330000000002 2.779329411914062 1.4655330000000002 M 2.8212874119140623 1.4265720000000002 Q 2.876731911914062 1.4265720000000002 2.9306779119140622 1.38386475 Q 2.984623911914062 1.3411575 3.0340744119140624 1.2737250000000002 Q 3.083524911914062 1.2062925000000002 3.124733661914062 1.1298690000000002 Q 3.1659424119140622 1.0534455 3.196661661914062 0.9845145000000002 Q 3.227380911914062 0.9155835000000001 3.242365911914062 0.8736255000000002 Q 3.119488911914062 0.9140850000000001 3.014593911914062 0.9815175000000002 Q 2.909698911914062 1.04895 2.827281411914062 1.150848 Q 2.780827911914062 1.2062925000000002 2.761347411914062 1.2549937500000001 Q 2.741866911914062 1.3036950000000003 2.741866911914062 1.3396590000000002 Q 2.741866911914062 1.3801185 2.763595161914062 1.40334525 Q 2.785323411914062 1.4265720000000002 2.8212874119140623 1.4265720000000002" fill="#102036" fill-rule="nonzero"></path></g><g></g><g clip-path="url(&quot;#SvgjsClipPath1003&quot;)"><path d=" M -2.3113223112426104 -0.41279538042801833 L -0.004999999999999893 -0.41279538042801833 L -0.004999999999999893 1.3238833804280183 L -2.3113223112426104 1.3238833804280183 Z" fill="#3682ae" transform="matrix(1,0,0,1,0,0)" fill-rule="nonzero" mask="url(#maskedIcon)"></path></g></g><defs><clipPath id="SvgjsClipPath1003"><path d=" M -2.3113223112426104 -0.41279538042801833 h 2.3063223112426106 v 1.7366787608560368 h -2.3063223112426106 Z"></path></clipPath><mask id="maskedIcon"><path d=" M -0.042089742636470806 0.6301806380201384 C -0.046137783577205216 0.6415866565112672 -0.05010509435672805 0.653004207882569 -0.053311235044831484 0.6619421900166688 C -0.07112953491216567 0.6695538909308699 -0.0899050638338621 0.6601430607096758 -0.10149560840775962 0.6763121587122668 L -0.14393660744451742 0.6757355147036151 C -0.14601252587566327 0.6492098903056415 -0.14808844430680912 0.6225689371059374 -0.15007209969657076 0.5964123648735006 C -0.14865355543528835 0.5946017026863345 -0.14761559621971543 0.5923181924120741 -0.14628931499981634 0.5920298704077483 C -0.1376165891096961 0.5903230041421398 -0.12865554121525014 0.5898386231748721 -0.12016734140789875 0.5874167183385356 C -0.11387108240159982 0.5849012613797104 -0.1078658603860374 0.5817111080230852 -0.10225677849917991 0.5779020921957841 C -0.08990506383386254 0.5690563731030683 -0.08131306810495342 0.5588843727904541 -0.08631833810004963 0.5416657826921172 C -0.08748847222261702 0.5381749086531528 -0.08744376348610672 0.5343909237721627 -0.08619147641814662 0.5309286712510242 C -0.08494641329637664 0.5274769758665662 -0.0825627628398311 0.5245523262449683 -0.07943320863674952 0.5226365304066143 C -0.06915741240257756 0.5181617728994777 -0.06886909039825184 0.5096966388524724 -0.07065668682507198 0.5003780716726624 C -0.06990704961382477 0.48953716431001215 -0.06924967544396177 0.47859246102580477 -0.06848850535254236 0.4677515536631547 C -0.06906514936119423 0.45957474162047485 -0.06952646456811529 0.45138639669762215 -0.06999931265520942 0.4432095846549424 C -0.06999931265520942 0.4328299924992134 -0.06708149397143215 0.4203744819123387 -0.0716023829992607 0.41257825491536915 C -0.07799567613353098 0.4040815766194126 -0.08723674058765107 0.398173355083172 -0.09763209354979452 0.39593630882568387 C -0.11319653116661721 0.39290938504150086 -0.12895483726010948 0.3909824706255689 -0.14479004057732148 0.3901698687391679 C -0.15047453533685662 0.3862574971197098 -0.15639440208895738 0.3826986442381608 -0.16251607740327279 0.37951348745928604 C -0.18656213256404497 0.36847652113369433 -0.18685045456837068 0.3682919950509258 -0.1850513252613779 0.3332781708456004 L -0.1692051479036305 0.34952799900940257 C -0.15838558924681845 0.3364935071177032 -0.1535582941827598 0.31950377305876965 -0.15590773706412442 0.30272757126723837 C -0.15100626299058595 0.28369831898173536 -0.16534163304566496 0.26928221876544534 -0.16807492564667337 0.2490766127022931 L -0.14468624465576463 0.2043636362714476 C -0.13289964111892605 0.20389078818435324 -0.11979828924236147 0.20722379055435958 -0.11196746360487264 0.19390331395450755 C -0.09980027502232414 0.17753815698897502 -0.10056144511374399 0.15832437862070348 -0.10027312310941827 0.13939892225675787 C -0.08874024293638616 0.13073772924681082 -0.09198098226500795 0.11748644992799695 -0.08999732687524675 0.10581517519288852 C -0.08440178736729687 0.10276885049099627 -0.07976531622581451 0.09822423019900128 -0.07660765299435646 0.092690757555978 C -0.07344652975309796 0.087137910625459 -0.07187821534050176 0.0808207561340118 -0.07207523108635483 0.07443420824206826 C -0.07471626064597903 0.049407858266588556 -0.06264133510481429 0.03162415703977306 -0.050762468526591054 0.012790963717211723 C -0.04462801446476439 0.0031926895939682343 -0.046795239198652805 -0.009496061670572986 -0.05576773852168726 -0.016514084802462803 L -0.0670814939714317 -0.03553180420779267 C -0.06584747579291728 -0.03981050275198761 -0.06246834190221895 -0.04504643035054412 -0.0637830902419445 -0.04821797239812797 C -0.06618635417438101 -0.05373606851976709 -0.06981953505686267 -0.05863159237987531 -0.07440487288130715 -0.06253027669286088 C -0.07896825887569747 -0.06642073590850711 -0.08436701685885417 -0.06920693703139358 -0.09018185295801473 -0.07067249009502147 C -0.09679019329716221 -0.07609294377634651 -0.10309867875181045 -0.08207850858615023 -0.11007607125649477 -0.08681852233726639 C -0.12098843545137283 -0.0926718113190817 -0.12942674261866172 -0.10226061063290554 -0.13384533729311476 -0.11382852770250751 C -0.13242679303183147 -0.1148780197982534 -0.12998182243514833 -0.11573145293105774 -0.12969350043082262 -0.11706926703112952 C -0.12092851149931816 -0.16196676954474343 -0.12092851149931816 -0.16196676954474343 -0.13526388155439717 -0.19839913801135178 C -0.13856228528388437 -0.20666821309541578 -0.141387840926277 -0.2150410841010371 -0.14468624465576463 -0.22332169206527414 C -0.12854021241351932 -0.23939852702648087 -0.13149262973781584 -0.2580356613861007 -0.13743206302692723 -0.2770649136716037 C -0.13903513337097895 -0.2821047823072187 -0.1436482854401917 -0.287617499029928 -0.14251806318323457 -0.2917116714913544 C -0.13705147798121775 -0.31131756778550895 -0.1301663485179172 -0.33062360919516465 -0.12366180410032701 -0.35168264839112123 L -0.16770587348113652 -0.3741371660880148 C -0.1950562461354366 -0.3861449941212941 -0.22373546766706331 -0.3948633535825824 -0.2531414498029583 -0.4001092122376831 C -0.26542327070270977 -0.4106098459976717 -0.28218111859911854 -0.4141896555560708 -0.29768143303120853 -0.40962383838043454 L -0.35188596984445897 -0.40962383838043454 C -0.3714111359774024 -0.4101889495089131 -0.39234331349145557 -0.41589772519456397 -0.40997708727602156 -0.4104772715132389 C -0.44119659390441934 -0.4009626453704874 -0.47307347470268013 -0.4026810445162692 -0.5042814484509051 -0.39773343892203844 C -0.5251971229241987 -0.39941645889526217 -0.5462471239175715 -0.3979076097569972 -0.566708928827528 -0.393258681414902 C -0.5883100133916168 -0.38907224591209133 -0.6115948984609685 -0.393258681414902 -0.634049416157862 -0.38936056791641716 C -0.6367827087588707 -0.3913557561863517 -0.6397005274426477 -0.39525386968483656 -0.6423415570022721 -0.39512700800293316 C -0.665076723901314 -0.3960144812451353 -0.6867831963305782 -0.3856166104791586 -0.7003404113924503 -0.3673442996660989 C -0.7036716497106843 -0.3679165329852441 -0.7070569422019142 -0.36810997827045727 -0.7104316815438538 -0.3679209436747505 C -0.7179741851770165 -0.3774355698175019 -0.725332162727411 -0.3696278099403592 -0.7327824033191896 -0.3679209436747505 C -0.7610725583836373 -0.3679209436747505 -0.789362713448085 -0.3672520366247146 -0.8183102426823954 -0.36668692549623605 C -0.832609488506598 -0.36829731600246995 -0.8469835714155429 -0.3643819874489141 -0.8584907972052391 -0.35574222221202856 C -0.8641068064853379 -0.3511745057610835 -0.871851319622168 -0.35024965375749684 -0.8783850155037194 -0.35336644889638397 C -0.897241274586627 -0.3604937688433178 -0.9115766446417057 -0.35022950548931925 -0.9283685181736405 -0.34328671162515395 C -0.9451603917055753 -0.33634391776098865 -0.9666576803481071 -0.3499411834849935 -0.9829651729127742 -0.33377208548240245 L -1.0156954868438395 -0.324257459339651 C -1.0354974421009355 -0.3320536863366207 -1.0552071343166471 -0.3384313690723074 -1.0733598877089998 -0.3201632868782246 L -1.0733598877089998 -0.29977315473230387 C -1.0733598877089998 -0.298723662636558 -1.0761854433513929 -0.2977779664623693 -1.07769625065406 -0.29682073740800763 C -1.114762927530185 -0.32592972696474065 -1.114762927530185 -0.32592972696474065 -1.1461669602413513 -0.3124247242821201 C -1.1694958471655645 -0.31335304922593255 -1.1928042423071201 -0.310131500224126 -1.2150067219941798 -0.30291009813936864 C -1.2389449040326321 -0.29725979590921286 -1.2632105559182345 -0.293099969871681 -1.2876638670842815 -0.2904545875524941 L -1.3773550761899525 -0.2750466596413231 C -1.40383466198446 -0.27213968742988615 -1.4301485193131152 -0.2678823547491528 -1.4561938450528022 -0.2622912941699491 C -1.4696943449164976 -0.2579667970997146 -1.483789805306061 -0.2557874879284955 -1.4979659370395222 -0.2558328812730516 C -1.5405799292788762 -0.25798952986540863 -1.5781079213619225 -0.24210875386714345 -1.6147363487914723 -0.2229872385402563 C -1.636891011603867 -0.2229872385402563 -1.6596223184249133 -0.21156968716895452 -1.6807505549019082 -0.2264471025921659 C -1.699041702856337 -0.22264125213506536 -1.7194087692419115 -0.22711600964220177 -1.7351626835582734 -0.2128498368681611 C -1.7382249361672053 -0.21270985634564787 -1.7412473713498802 -0.2120991455043609 -1.7441237314527196 -0.2110391746809951 L -1.7662437956245949 -0.2110391746809951 C -1.7751654784635438 -0.21222703350708028 -1.784205256468984 -0.21222703350708028 -1.7931269393079328 -0.21103917468099503 C -1.8197217609869447 -0.20418864385821398 -1.845647675615921 -0.20808675735669885 -1.8723347603363172 -0.20988588666369182 C -1.8955206603201988 -0.21186101692605494 -1.91841760181641 -0.21639012477944397 -1.9406094109606673 -0.22339088934631243 C -1.9507783544810442 -0.22687521370964267 -1.9611407294768717 -0.22976712884225747 -1.9716443915062958 -0.23205208235625935 C -1.9760356373819883 -0.2331843355489255 -1.9806750721073414 -0.23286883780823017 -1.9848726050647643 -0.231152517702763 C -1.9890895455220203 -0.2294346319620261 -1.9926487891922373 -0.22641674885004884 -1.9950330724972056 -0.22253745621350796 C -2.004455435598573 -0.21873160575640743 -2.0056894537770873 -0.2098512880231727 -2.0072925241211386 -0.20142075261668627 C -2.0156527620301476 -0.19963076630079044 -2.023673169017675 -0.19651604514058565 -2.0310502572775846 -0.19219444847826053 C -2.050386790177255 -0.17594844740525134 -2.0613128678163757 -0.151810129142737 -2.0607589566033155 -0.12656082741353497 C -2.0595977095729063 -0.10718664975135883 -2.062343101670399 -0.08777672762208444 -2.0688319727244378 -0.0694846034371992 C -2.07124780933534 -0.059107295546486416 -2.0722295561533475 -0.048447775747808286 -2.071749791408215 -0.03780378160188008 C -2.0970029093682467 -0.024501919069425337 -2.1252646801804573 -0.017950940707134544 -2.1537947009591654 -0.018786062196550157 C -2.1607262732362 -0.019179073874564523 -2.1676787498851837 -0.01860067129461007 -2.1744500893490657 -0.017067663050768345 C -2.194955550296717 -0.011451150406501798 -2.2153226166822915 -0.004865875827700372 -2.238895823755969 0.002388305801136803 C -2.2453081051321746 0.00856992957388203 -2.2528506087653377 0.021406025206466672 -2.263599253086604 0.02511961262218304 C -2.2887870633845058 0.03365394395022675 -2.297367526233242 0.05515123259275867 -2.3113223112426104 0.0739844259153199 C -2.306893685256166 0.0855980362495633 -2.3030186375180275 0.0954817145578517 -2.2992473857014457 0.10546918878769751 L -2.2992473857014457 0.1165638195141544 C -2.300976945618111 0.12539867749836653 -2.296775202609252 0.134334384297207 -2.288867793545717 0.1386377521653378 C -2.2876450503776424 0.14202225016421888 -2.2859648831198798 0.14522349262993306 -2.283874056430794 0.14815237830808936 C -2.2554692747538105 0.1761316958558985 -2.2368618185726685 0.21253758838421988 -2.2308228076348464 0.25194829986537803 C -2.2308228076348464 0.25490071718967433 -2.2264864446897863 0.2573687535467032 -2.224226000175872 0.2600213159865006 L -2.223464830084452 0.2812418155048797 C -2.227051555818265 0.29226724895029843 -2.230730544593462 0.30330421527589 -2.234317270327275 0.3143411816014817 C -2.241386925873344 0.33640358137249204 -2.2497828626393113 0.3580969289779655 -2.2551571847999443 0.380932031720569 C -2.260308029798307 0.39666477002945 -2.2572806107089676 0.41392970860751177 -2.2470841686788217 0.42697128937131323 C -2.2380260969895986 0.438338512435669 -2.2330324653055613 0.45240999814044425 -2.2328987260659923 0.4669442520510423 C -2.2328987260659923 0.4714190095581787 -2.227132285979476 0.47540938609804784 -2.2241222042543147 0.4796304202413775 C -2.2244110285633085 0.4830842566372714 -2.2244110285633085 0.4865561760012127 -2.2241222042543147 0.4900100123971065 C -2.2276436887223103 0.4924408499010716 -2.2303330706360964 0.4958951757723721 -2.2318261682099 0.4999052235855681 C -2.2333258170414636 0.5039244722739228 -2.2335671606572527 0.5083048589004918 -2.2325181410202823 0.5124645300940001 L -2.241386925873344 0.5314822494993299 C -2.228009835672461 0.5568091626254968 -2.210834513052697 0.5799390638075033 -2.1904577270292345 0.6000682878883513 C -2.177448638194054 0.6248063158595055 -2.1565049277998276 0.6453463754476757 -2.1559398166713493 0.6761852970303636 C -2.1559398166713493 0.6843621090730433 -2.143588102006032 0.6922621319915704 -2.1370835575884417 0.7002428850713084 C -2.1338774169003387 0.7045331164956764 -2.1315247093450402 0.7106224772270374 -2.1276496616069016 0.7128021915797401 C -2.1119436938314893 0.7218860905873744 -2.0996271269113818 0.7358424371270226 -2.0925666401205376 0.7525560295361816 L -2.1093585136524724 0.7642619029118095 L -2.1253892170929873 0.7760600393288212 C -2.131806173662534 0.7849975769195622 -2.1429465862012225 0.7892302978678126 -2.153679372157435 0.7868086836500873 C -2.1679844119573817 0.7864443852545789 -2.1819432089482573 0.7912378607021787 -2.1930064935474745 0.8003136863327079 C -2.2055234668437342 0.8100271715915269 -2.2172825599837522 0.8206797533442717 -2.228181778075222 0.8321790342507956 C -2.231691409282705 0.8381880521466317 -2.2340388371978857 0.8448038864875823 -2.2351015061790416 0.8516811346233929 C -2.2467035836331117 0.8527306267191387 -2.2599087314312336 0.8497782093948424 -2.2667823280143606 0.863571534081789 C -2.272733294183645 0.87897946199296 -2.2704613167895578 0.88905919926419 -2.2567025907431306 0.9073964787393111 C -2.2528275430049916 0.9180528600191927 -2.248964028147026 0.9287092412990742 -2.245008250247676 0.93945788562034 C -2.2355743542661357 0.9566764757186769 -2.2115628977458828 0.9510599630744104 -2.2013447659125767 0.9679902311684215 C -2.19112663407927 0.9849204992624329 -2.1690527014280865 0.9811146488053321 -2.149446805133932 0.9907215379894679 C -2.151430460523694 1.019265416417722 -2.1294603237940675 1.0280188724690533 -2.106636753931637 1.0359996255487918 C -2.0972028579500965 1.0393326279187982 -2.0877804948487295 1.0285839835975321 -2.089337433672089 1.0162207360520417 C -2.0901913041536897 1.012702994250914 -2.0914248730607277 1.009288444580335 -2.093016422447286 1.0060372028592544 C -2.0748830807315572 0.9866281476521362 -2.0631339901657 0.9621277316622857 -2.0593519452222053 0.9358365612460083 C -2.058510044969574 0.9297472005146471 -2.052755137763231 0.9242344837919377 -2.0493529381121864 0.9184334450649027 C -2.045489423254221 0.9217664474349091 -2.0420064934419653 0.9279480712076543 -2.0378200579391543 0.9279480712076543 C -2.0108446512144322 0.9317539216647547 -2.0041440478339005 0.9492493008872446 -2.0059431771408938 0.9732261587669783 L -2.0591328204989177 1.011284663337984 C -2.047715269127616 1.021560459572156 -2.0389502801961115 1.0294489496105097 -2.03084266543447 1.0370606505247109 C -2.0218267969106156 1.0304057543723988 -2.012371342906744 1.0243679807684596 -2.0025409774898493 1.0189886272935698 C -1.9910080973168172 1.0137526996950132 -1.9799134665903604 1.0313518748390602 -1.96652379270947 1.0206032305177941 C -1.9653705046921668 1.0163245319735994 -1.96397502619123 1.0111001372552155 -1.9626602778515043 1.0061525316609847 C -1.9548132928477586 1.0026812382937917 -1.946627227813433 1.0000337148997818 -1.9382336376450222 0.998252508742458 C -1.9303105489661494 0.9973990756096535 -1.9218223491587976 1.0077671348852095 -1.914095319442866 0.9998671119666823 C -1.904661423461326 0.9903524858239307 -1.911546552924626 0.9808493925613523 -1.914095319442866 0.9704813332857966 C -1.9147872204718728 0.9655579175256596 -1.9147872204718728 0.9605619322632412 -1.914095319442866 0.9556385165031042 L -1.89786855703941 0.9515443440416776 C -1.8925864979201614 0.969616367272819 -1.8925864979201614 0.969616367272819 -1.8810882163876483 0.9619239361974067 L -1.8646769279014237 0.9511752918761408 C -1.8648213743341482 0.9564181424720032 -1.8657424900901796 0.9616105924722486 -1.8674102205024323 0.9665832197873115 C -1.8740336636325021 0.9771549832523013 -1.8742512759520644 0.9905270382360051 -1.867975331630911 1.0013087219883112 C -1.8662139744255972 1.0062542114851372 -1.8653204851068985 1.0114668827942261 -1.8653343020712865 1.016716649899482 C -1.8696891883188311 1.0164858863471804 -1.874043707500404 1.0171775789247586 -1.878112733303006 1.0187464368099355 C -1.8821886798114607 1.0203225503100724 -1.8858894188355526 1.0227347092918055 -1.8889767064260023 1.0258276252361775 C -1.8952618349927939 1.032112326101394 -1.898610792911312 1.0407526375311709 -1.898203010564428 1.049631489913316 C -1.9129996958264281 1.0553402655989665 -1.928096235972927 1.0605761931975235 -1.9427083951521589 1.067034606094421 C -1.9573205543313905 1.0734930189913192 -1.977307035671255 1.0714171005601734 -1.9861873534044898 1.0901003664404851 C -1.9776991535971382 1.0941945389019114 -1.9673195614414092 1.0961897271718462 -1.9624180873678707 1.1023713509445914 C -1.955748068493269 1.1121453566201311 -1.950211305115763 1.122646248169084 -1.9459145358402616 1.1336715877342 C -1.9367459711127384 1.1322118324591486 -1.927404188152508 1.1322118324591486 -1.9182356234249847 1.1336715877342 C -1.9044979177660983 1.1391741053090803 -1.8887820910730573 1.1353528388717797 -1.8791045609978867 1.1241569615914488 C -1.8707086242319195 1.1164529976358635 -1.8624049505073363 1.1235918504629705 -1.8541128096629262 1.1257715648156732 L -1.812329184796031 1.1365202091369393 C -1.798662721790988 1.1284471930158166 -1.7851692519885405 1.1200743220101956 -1.7714105259421133 1.1123011607735718 C -1.7639378420780423 1.1069653936191188 -1.7542209303953045 1.1059202352518036 -1.745784466197636 1.1095448024122172 C -1.717021463046094 1.123245864057779 -1.6986265191701078 1.1095448024122172 -1.684291149115029 1.0854756814910993 C -1.6834492488623978 1.0840571372298164 -1.681373330431252 1.0833882301797804 -1.6798625231285846 1.0824425340055917 C -1.6759935850572858 1.0847114716100315 -1.672914087043332 1.0881130086319803 -1.671039869796215 1.0921878177518036 C -1.669151002401493 1.0962710685978014 -1.6685438342988674 1.1008308608387112 -1.6692984048900872 1.105266103868022 C -1.6701518380228917 1.115345841139252 -1.6712820602798488 1.1254371112906552 -1.6722277564540373 1.1349402045532337 C -1.652322005275384 1.1458849078374413 -1.6335580092338606 1.1552957380586353 -1.6144134281466274 1.1515014204817078 C -1.5850853138666068 1.1457349803951917 -1.5567490272814672 1.135044000474791 -1.527847629567849 1.1264750705062285 C -1.5266293250691896 1.1366359661839716 -1.527957004469803 1.1469403436215666 -1.5317111444258145 1.1564605589561117 C -1.5354328997559392 1.1660063269414782 -1.5414970379205095 1.1744620120735014 -1.5493449182103807 1.181048659485016 C -1.569250669389034 1.197194691727261 -1.5965028652379087 1.1940808140805421 -1.6182884758847664 1.2052100434475181 C -1.6199838092702021 1.2185305200473704 -1.6215868796142536 1.2305823798281885 -1.623189949958305 1.243268548018524 C -1.6174544214138136 1.2480760298244982 -1.6111248484616496 1.2521264913891104 -1.6043567566357435 1.255320407799343 C -1.5977523339150892 1.2581279608142761 -1.5903229788048527 1.2582971850140092 -1.5835975723242859 1.2557932558864366 C -1.5604049502963184 1.2412387611080704 -1.5389076616537865 1.2537980676165024 -1.5168337290026033 1.2578922400779287 C -1.5155014870399457 1.2751029953632487 -1.5069767035594421 1.2909550730927113 -1.4933527849703099 1.3015557244130278 L -1.4528031782819288 1.3015557244130278 C -1.4259315674787643 1.3008868173629922 -1.3999018569282309 1.3021208355415066 -1.3757520058459016 1.3170559153655832 C -1.3596942486882841 1.3252789911517726 -1.3408796961977192 1.326215519099406 -1.324084702670718 1.3196277476441693 C -1.3123903621752633 1.3161678835922594 -1.3000271146297728 1.3147724050913228 -1.2879637219687812 1.3124888948170623 C -1.282866188932301 1.3107820285514538 -1.2770190186845738 1.3065955930486433 -1.2726826557395137 1.3078757427478496 C -1.254483770826469 1.3130194073050219 -1.238257008423013 1.307206835697814 -1.220623234638447 1.3035970442036544 C -1.1962081273121379 1.2985571755680394 -1.1727271832798445 1.2862977239441067 -1.1465936768077538 1.2909108760133194 C -1.1413116176885052 1.300413969275898 -1.1385206606866314 1.3111741464773368 -1.1277374177248465 1.316686863200046 L -1.084823570600994 1.3084062552358091 C -1.0840913346722947 1.2982252046571192 -1.0802960746027213 1.2885038711314536 -1.0739365317176517 1.2805197509774175 C -1.067609946049302 1.2725670090719876 -1.0590081044230064 1.2667332062852106 -1.049279233907709 1.2637970747265213 C -1.0298463308161498 1.257234865908066 -1.016179867811107 1.2336385930740423 -0.9916148330425487 1.2436260673038881 C -0.9779483700375056 1.2341229740413096 -0.9754688008003036 1.2138597035772927 -0.9561627593906479 1.210180714802095 C -0.9528970538475636 1.2138731191424266 -0.9491179782915802 1.217077371283934 -0.9449412669822876 1.2196953409448463 C -0.9260734750192072 1.2292099670875976 -0.9141023453996 1.2244468875761356 -0.9072172159362999 1.2053253722492485 C -0.9055218825508642 1.2001932405722493 -0.9059947306379585 1.193342709749468 -0.9027885899498553 1.1900212402596346 C -0.8973267187902008 1.1857198679493757 -0.8912953761868434 1.1821957630048145 -0.8848664941609636 1.179549385062522 C -0.8721803259706282 1.1760318566097472 -0.8592173686561402 1.1729871762440665 -0.8471424431149757 1.1687084776998717 C -0.8412824064895077 1.166089475441431 -0.8356930227733115 1.1629027155479537 -0.8304543655045982 1.15919385155712 C -0.8117141458027277 1.160884748913694 -0.7929026764339413 1.1568384931546607 -0.7765150849353275 1.1475917741030504 C -0.7439808299672037 1.1494946993316 -0.7140876045587043 1.1380771479602987 -0.6839983201872639 1.128562521817547 C -0.6779715316935844 1.1268964538668955 -0.6723820428954632 1.1239324503000048 -0.6676216303415587 1.1198782630472541 C -0.6628498285633899 1.1158076914525616 -0.6590107453353922 1.1107570942550726 -0.656365539292679 1.105070044905081 C -0.6529748725218076 1.1045049337766022 -0.6494458111888601 1.1041243487308923 -0.6459052169757391 1.1038360267265666 C -0.6228394566296747 1.1078264032664356 -0.6023339956820237 1.096039799729597 -0.5804561219937816 1.0927990604009747 C -0.5511221578406686 1.0951379896500386 -0.5216206606883196 1.0914164435022768 -0.4937865274934461 1.0818658899969402 L -0.46134453556670674 1.0818658899969402 C -0.4374515976746163 1.0843714635446355 -0.4142640157707904 1.0728383495370335 -0.40184640675403416 1.0522725194729396 C -0.39442524765048437 1.0433769478557329 -0.38597398145104855 1.035394121056266 -0.37667012933630506 1.0284917205561475 L -0.35506904477221624 1.067703513144457 C -0.35145902474420887 1.0687867013151444 -0.3477088180626715 1.0693307727508081 -0.34393981540524043 1.0693181163686813 C -0.3205511344143315 1.065604528952965 -0.312801038938054 1.039828541766238 -0.29216871630849894 1.0329780109434572 C -0.2781391227336396 1.0308748717483556 -0.26422736079869535 1.0280494059873573 -0.25048888736316055 1.024512876896451 C -0.2383216987806125 1.0215604595721555 -0.22626983899979392 1.0183312531237063 -0.21418338057845654 1.0149982507537003 C -0.19964997235930015 1.0130955259628531 -0.18686108545069402 1.0044599294234975 -0.17966547022057133 0.9916902999240024 C -0.18258328890434816 0.9761901089714472 -0.18635454072092994 0.9605515234568155 -0.18833819611069158 0.944128702090418 C -0.19117940027342817 0.9331004942192173 -0.18646729344902901 0.9215122712733291 -0.17673611865662142 0.9155963565423367 C -0.17061215928474116 0.9126439392180404 -0.16137432226614257 0.9113176579981418 -0.1589178187892868 0.9065545784866792 C -0.15367699821319736 0.8942421147984635 -0.14947965168330812 0.8815111924192055 -0.14637004516102792 0.8684960739156732 L -0.18409409620701567 0.8371035740846803 L -0.1658952112939711 0.8180858546793502 C -0.1625045445230997 0.8174169476293144 -0.15646131531243102 0.8180858546793502 -0.15598846722533644 0.8157792786447439 C -0.1481691744680207 0.7947548380893065 -0.14108798604177863 0.7735458714511002 -0.13374154137155747 0.7522331088913371 C -0.12767964154877864 0.7553795767865145 -0.1213690797656648 0.7580218352348235 -0.11487374940847639 0.760133131809864 C -0.10026159022924563 0.763742923304023 -0.09224623850898839 0.7566732677579543 -0.09168112738050915 0.7411038795243609 C -0.09072582868856083 0.7323607099984698 -0.09427434826288073 0.7237304671659434 -0.10110349048187661 0.7181880466205462 C -0.10110349048187661 0.6917431523837837 -0.10110349048187661 0.6917431523837837 -0.08064416105491823 0.685365469648097 L -0.03980623236221126 0.6885024130551617 C -0.0349425683369784 0.6762833420523428 -0.030757448588104364 0.6638049859289737 -0.02726999161412591 0.6511243484143644 C -0.026767149969048276 0.6487557471882209 -0.026767149969048276 0.6463079652927096 -0.02726999161412591 0.6439393640665657 C -0.027767630969903756 0.6415748019962603 -0.028745001848791585 0.6393374469723 -0.030141678777210412 0.6373656223679375 C -0.031547389078302235 0.6354083577670896 -0.03334650995322086 0.6337663653528626 -0.03542373789645881 0.6325448784556099 C -0.03745450687799501 0.6312962752071175 -0.03972607052065813 0.6304906168217438 -0.042089742636470806 0.6301806380201384 Z" fill="#ffffff" transform="matrix(1,0,0,1,0,0)" fill-rule="nonzero"></path><path d=" M -0.01709799130151035 0.7230318562932198 C -0.019207798611220017 0.7226178188910698 -0.021383810335589892 0.7226848337449 -0.023464141157023555 0.7232279152561613 C -0.027688821281552478 0.7243450050624342 -0.031181878730752732 0.7273124082352985 -0.03296723441960259 0.7313009313772837 C -0.033865292547945014 0.7332721768088283 -0.034306825000513186 0.7354207052610587 -0.03425891699898198 0.7375863510715864 C -0.03467786552780039 0.741106824489212 -0.03363401383869524 0.7446450057455624 -0.03137122783861468 0.7473743006127117 C -0.029108441838534116 0.750103595479861 -0.025824928918793066 0.7517849330002687 -0.02228778737937498 0.7520255170482221 C -0.01801123476582367 0.7528862723183926 -0.013575442076274591 0.7517529166742686 -0.010235927598556405 0.748946238042023 C -0.006884121911967966 0.7461229600439506 -0.004975176636744738 0.7419452904505016 -0.005034598640518695 0.7375632853112403 C -0.004789394754788123 0.7340414541805779 -0.0059084925657386655 0.7305602753812012 -0.008160009167410553 0.727841067325374 C -0.010403047678621657 0.7251397005343568 -0.013607784917256005 0.7234153451427306 -0.01709799130151035 0.7230318562932198 Z" fill="#ffffff" transform="matrix(1,0,0,1,0,0)" fill-rule="nonzero"></path><path d=" M -0.02568998703041947 0.575387924318063 C -0.02417917972775241 0.575387924318063 -0.02097303903964942 0.5701635295996794 -0.021538150168127768 0.5687334524582235 C -0.022475426972892176 0.5653467686271102 -0.0246863948065692 0.5624539135176266 -0.027708241060699912 0.560660436337101 C -0.030705376293535203 0.558886883940418 -0.0342763612381658 0.5583530982418576 -0.03766111665002647 0.5591726947947797 C -0.0386990758655994 0.5605105088948514 -0.04077499429674525 0.562125112119076 -0.040498205172592616 0.5631746042148218 C -0.04000668982669309 0.5667025996628309 -0.03820794952066997 0.5699172819946468 -0.03545833653697761 0.57218178362996 C -0.032729481222028234 0.5744557543070917 -0.029235625493832185 0.5756024979817534 -0.02568998703041947 0.5753879243180627 Z" fill="#ffffff" transform="matrix(1,0,0,1,0,0)" fill-rule="nonzero"></path><path d=" M -0.5952240966444298 0.8357395280332679 L -0.7365272786946562 0.9031628441126643 L -0.7366331237748434 0.18140524231454225 L -0.8107246799060484 0.14626467569231383 L -0.8107246799060484 0.4398789281322596 L -1.0933310440065012 0.5922958436021667 L -1.0934368890866883 0.8782892502686169 L -1.2347400711369145 0.8110776243495957 L -1.2347400711369145 0.5676339399184941 L -0.9520278619562745 0.4152170244485872 L -0.9521337070364622 0.07905304977329242 L -1.284910639145759 -0.07918534510692354 L -1.3642944492863358 -0.02097055100383416 L -1.3642944492863358 0.25327405176181106 L -1.505597631336562 0.3294825094967644 L -1.505597631336562 -0.02753294597545508 L -1.2464888750377199 -0.21741901983171422 L -0.5953299417246172 0.09207199463634685 L -0.5952240966444298 0.8357395280332679 Z" fill="NA" transform="matrix(1,0,0,1,0,0)" fill-rule="evenodd"></path><path d=" M -0.9520278619562745 0.6578139482381892 L -0.9520278619562745 0.9320585510038343 L -1.0314116720968511 0.9901675000267364 L -1.3640827591259606 0.8320349502267076 L -1.3642944492863358 0.4958709755514129 L -1.0815822401056956 0.3433482150013185 L -1.0814763950255082 0.1000103756504046 L -1.2228854221559218 0.03269290465119562 L -1.2229912672361092 0.31868631131764613 L -1.505597631336562 0.471103226787553 L -1.505597631336562 0.7648233243076862 L -1.5796891874677668 0.7296827576854578 L -1.5797950325479542 0.007925155887335722 L -1.7210982145981806 0.0752426268865447 L -1.720992369517993 0.8189101602834657 L -1.0698334362048902 1.1285070198317144 L -0.8107246799060484 0.9386209459754552 L -0.8107246799060484 0.5816054905032357 L -0.9520278619562745 0.6578139482381892 Z" fill="NA" transform="matrix(1,0,0,1,0,0)" fill-rule="evenodd"></path></mask></defs></svg>